<?xml version="1.0" encoding="UTF-8"?>
<!DOCTYPE svg PUBLIC "-//W3C//DTD SVG 1.1//EN" "http://www.w3.org/Graphics/SVG/1.1/DTD/svg11.dtd">
<!-- Creator: CorelDRAW 2020 (64 Bit) -->
<svg xmlns="http://www.w3.org/2000/svg" xml:space="preserve" width="142.05mm" height="58.4255mm" version="1.1" style="shape-rendering:geometricPrecision; text-rendering:geometricPrecision; image-rendering:optimizeQuality; fill-rule:evenodd; clip-rule:evenodd"
viewBox="0 0 2621.93 1078.41"
 xmlns:xlink="http://www.w3.org/1999/xlink"
 xmlns:xodm="http://www.corel.com/coreldraw/odm/2003">
 <defs>
  <style type="text/css">
   <![CDATA[
    .fil5 {fill:#747473}
    .fil3 {fill:#DA725D}
    .fil2 {fill:#DB7263}
    .fil4 {fill:#DC6D63}
    .fil1 {fill:#DE6D5D}
    .fil0 {fill:#747473;fill-rule:nonzero}
   ]]>
  </style>
 </defs>
 <g id="Camada_x0020_1">
  <metadata id="CorelCorpID_0Corel-Layer"/>
  <path class="fil0" d="M893.28 1075.89l0 -3.02 4.17 0c4.7,0 8.03,-1.51 9.99,-4.51 1.2,-1.79 1.79,-5.85 1.79,-12.12l0 -72.03c0,-6.94 -0.75,-11.28 -2.29,-13.01 -2.13,-2.41 -5.29,-3.61 -9.49,-3.61l-4.17 0 0 -3.02 45.25 0c16.62,0 29.27,1.88 37.92,5.65 8.68,3.78 15.64,10.07 20.91,18.89 5.29,8.82 7.92,19 7.92,30.53 0,15.5 -4.7,28.43 -14.1,38.84 -10.55,11.61 -26.61,17.41 -48.22,17.41l-49.67 0zm31.73 -8.17c6.94,1.54 12.73,2.29 17.44,2.29 12.65,0 23.14,-4.45 31.51,-13.38 8.34,-8.9 12.51,-20.99 12.51,-36.24 0,-15.36 -4.17,-27.48 -12.51,-36.32 -8.37,-8.87 -19.09,-13.29 -32.18,-13.29 -4.9,0 -10.5,0.78 -16.76,2.38l0 94.56zm121.76 -97.1l0 43.99 24.51 0c6.35,0 10.58,-0.95 12.7,-2.85 2.86,-2.52 4.42,-6.94 4.76,-13.27l3.02 0 0 38.79 -3.02 0c-0.75,-5.43 -1.54,-8.93 -2.29,-10.47 -0.98,-1.9 -2.6,-3.41 -4.84,-4.51 -2.24,-1.09 -5.68,-1.65 -10.33,-1.65l-24.51 0 0 36.71c0,4.93 0.22,7.92 0.64,8.98 0.45,1.06 1.2,1.93 2.29,2.55 1.09,0.64 3.19,0.95 6.24,0.95l18.83 0c6.27,0 10.83,-0.45 13.68,-1.31 2.83,-0.87 5.57,-2.6 8.17,-5.18 3.39,-3.39 6.86,-8.51 10.41,-15.34l3.36 0 -9.6 27.87 -85.77 0 0 -3.02 3.95 0c2.63,0 5.12,-0.64 7.47,-1.9 1.76,-0.87 2.97,-2.18 3.58,-3.95 0.64,-1.76 0.95,-5.35 0.95,-10.77l0 -72.37c0,-7.05 -0.7,-11.39 -2.13,-13.01 -1.99,-2.18 -5.26,-3.27 -9.88,-3.27l-3.95 0 0 -3.02 85.8 0 1.18 24.51 -3.19 0c-1.15,-5.9 -2.41,-9.96 -3.81,-12.17 -1.4,-2.21 -3.47,-3.89 -6.19,-5.06 -2.18,-0.81 -6.04,-1.23 -11.56,-1.23l-30.5 0zm65.23 -6.04l29.91 0 68.2 83.59 0 -64.28c0,-6.86 -0.78,-11.14 -2.32,-12.84 -2.04,-2.29 -5.29,-3.44 -9.71,-3.44l-3.92 0 0 -3.02 39.12 0 0 3.02 -3.97 0c-4.79,0 -8.14,1.43 -10.16,4.28 -1.2,1.76 -1.82,5.76 -1.82,12l0 93.8 -2.97 0 -73.26 -89.66 0 68.56c0,6.86 0.75,11.14 2.24,12.84 2.1,2.29 5.34,3.44 9.74,3.44l3.97 0 0 3.02 -39.12 0 0 -3.02 3.92 0c4.81,0 8.2,-1.43 10.21,-4.28 1.2,-1.76 1.82,-5.76 1.82,-12l0 -77.4c-3.22,-3.78 -5.68,-6.27 -7.33,-7.47 -1.68,-1.2 -4.11,-2.32 -7.33,-3.39 -1.59,-0.47 -4,-0.73 -7.22,-0.73l0 -3.02zm220.71 0l1.18 26.17 -3.11 0c-0.62,-4.59 -1.43,-7.89 -2.46,-9.85 -1.71,-3.16 -3.95,-5.51 -6.77,-7 -2.83,-1.51 -6.52,-2.27 -11.11,-2.27l-15.67 0 0 84.96c0,6.86 0.73,11.14 2.21,12.84 2.07,2.29 5.26,3.44 9.57,3.44l3.83 0 0 3.02 -47.35 0 0 -3.02 4 0c4.76,0 8.11,-1.43 10.13,-4.28 1.2,-1.76 1.82,-5.76 1.82,-12l0 -84.96 -13.35 0c-5.21,0 -8.9,0.39 -11.08,1.15 -2.86,1.04 -5.26,3.02 -7.3,5.99 -2.02,2.94 -3.22,6.94 -3.61,11.98l-3.11 0 1.18 -26.17 91 0zm68.81 74.21l-43.1 0 -7.44 17.44c-1.85,4.31 -2.8,7.55 -2.8,9.68 0,1.68 0.81,3.19 2.43,4.48 1.59,1.26 5.09,2.1 10.44,2.49l0 3.02 -35.09 0 0 -3.02c4.64,-0.81 7.64,-1.88 9.01,-3.19 2.8,-2.63 5.88,-7.98 9.26,-16.01l39.15 -91.62 2.77 0 38.7 92.6c3.11,7.44 5.93,12.26 8.48,14.49 2.55,2.21 6.07,3.44 10.63,3.72l0 3.02 -43.88 0 0 -3.02c4.42,-0.23 7.41,-0.95 8.98,-2.21 1.57,-1.26 2.32,-2.8 2.32,-4.62 0,-2.41 -1.09,-6.21 -3.27,-11.42l-6.6 -15.84zm-2.49 -6.04l-18.75 -44.91 -19.25 44.91 38 0zm143.22 12.43l2.69 0.59 -9.57 30.14 -86.14 0 0 -3.02 4.17 0c4.7,0 8.06,-1.51 10.07,-4.56 1.15,-1.74 1.71,-5.76 1.71,-12.06l0 -72.03c0,-6.94 -0.75,-11.28 -2.29,-13.01 -2.13,-2.41 -5.29,-3.61 -9.49,-3.61l-4.17 0 0 -3.02 50.37 0 0 3.02c-5.9,-0.06 -10.04,0.48 -12.45,1.62 -2.38,1.12 -4,2.57 -4.87,4.28 -0.87,1.74 -1.32,5.88 -1.32,12.4l0 70.18c0,4.56 0.45,7.67 1.32,9.37 0.64,1.18 1.68,2.01 3.05,2.57 1.34,0.53 5.63,0.81 12.82,0.81l8.12 0c8.56,0 14.55,-0.61 17.99,-1.87 3.44,-1.26 6.6,-3.5 9.46,-6.69 2.83,-3.19 5.68,-8.23 8.53,-15.11zm118.99 -83.11l0 38.45 -3.02 0c-0.98,-7.39 -2.74,-13.27 -5.29,-17.63 -2.55,-4.37 -6.19,-7.84 -10.91,-10.41 -4.7,-2.57 -9.57,-3.86 -14.61,-3.86 -5.71,0 -10.41,1.74 -14.13,5.21 -3.72,3.47 -5.6,7.44 -5.6,11.86 0,3.39 1.18,6.49 3.53,9.29 3.41,4.08 11.47,9.57 24.23,16.4 10.41,5.6 17.52,9.88 21.32,12.84 3.81,3 6.74,6.49 8.79,10.55 2.04,4.06 3.08,8.28 3.08,12.73 0,8.42 -3.27,15.67 -9.79,21.77 -6.55,6.1 -14.97,9.15 -25.24,9.15 -3.25,0 -6.27,-0.25 -9.12,-0.76 -1.71,-0.28 -5.21,-1.29 -10.55,-3.02 -5.32,-1.74 -8.7,-2.6 -10.13,-2.6 -1.37,0 -2.46,0.42 -3.25,1.23 -0.78,0.84 -1.37,2.55 -1.76,5.15l-3.02 0 0 -38.12 3.02 0c1.43,7.98 3.33,13.96 5.74,17.91 2.41,3.97 6.1,7.28 11.05,9.88 4.95,2.63 10.38,3.95 16.29,3.95 6.83,0 12.26,-1.82 16.2,-5.43 3.97,-3.64 5.96,-7.92 5.96,-12.84 0,-2.74 -0.75,-5.51 -2.24,-8.31 -1.51,-2.8 -3.83,-5.4 -7,-7.84 -2.13,-1.65 -7.98,-5.12 -17.52,-10.44 -9.54,-5.29 -16.34,-9.54 -20.37,-12.7 -4.03,-3.16 -7.11,-6.69 -9.18,-10.49 -2.1,-3.83 -3.13,-8.06 -3.13,-12.65 0,-7.98 3.08,-14.86 9.21,-20.62 6.13,-5.76 13.96,-8.65 23.42,-8.65 5.93,0 12.2,1.46 18.83,4.34 3.08,1.37 5.23,2.04 6.49,2.04 1.43,0 2.6,-0.42 3.5,-1.26 0.9,-0.87 1.62,-2.55 2.18,-5.12l3.02 0zm50.73 61.65l0 32.55c0,7 0.76,11.33 2.29,13.01 2.07,2.41 5.21,3.61 9.4,3.61l4.25 0 0 3.02 -47.69 0 0 -3.02 4.2 0c4.7,0 8.09,-1.54 10.1,-4.59 1.09,-1.68 1.65,-5.71 1.65,-12.03l0 -72.03c0,-7 -0.73,-11.33 -2.21,-13.01 -2.16,-2.41 -5.32,-3.61 -9.54,-3.61l-4.2 0 0 -3.02 40.8 0c9.96,0 17.8,1.04 23.56,3.08 5.74,2.04 10.58,5.51 14.52,10.38 3.95,4.87 5.9,10.64 5.9,17.29 0,9.09 -2.99,16.48 -8.98,22.16 -5.99,5.68 -14.44,8.53 -25.38,8.53 -2.69,0 -5.57,-0.2 -8.68,-0.59 -3.13,-0.36 -6.46,-0.95 -10.02,-1.74zm0 -4.7c2.88,0.56 5.46,0.98 7.7,1.23 2.21,0.28 4.14,0.42 5.71,0.42 5.68,0 10.55,-2.21 14.66,-6.6 4.11,-4.39 6.19,-10.07 6.19,-17.04 0,-4.81 -0.98,-9.29 -2.94,-13.41 -1.96,-4.11 -4.76,-7.19 -8.34,-9.23 -3.61,-2.04 -7.7,-3.08 -12.26,-3.08 -2.8,0 -6.35,0.53 -10.72,1.57l0 46.14zm120.44 19.78l-43.1 0 -7.44 17.44c-1.85,4.31 -2.8,7.55 -2.8,9.68 0,1.68 0.81,3.19 2.43,4.48 1.59,1.26 5.09,2.1 10.44,2.49l0 3.02 -35.09 0 0 -3.02c4.64,-0.81 7.64,-1.88 9.01,-3.19 2.8,-2.63 5.88,-7.98 9.26,-16.01l39.15 -91.62 2.77 0 38.7 92.6c3.11,7.44 5.93,12.26 8.48,14.49 2.55,2.21 6.07,3.44 10.63,3.72l0 3.02 -43.88 0 0 -3.02c4.42,-0.23 7.41,-0.95 8.98,-2.21 1.57,-1.26 2.32,-2.8 2.32,-4.62 0,-2.41 -1.09,-6.21 -3.27,-11.42l-6.6 -15.84zm-2.49 -6.04l-18.75 -44.91 -19.25 44.91 38 0z"/>
  <path class="fil1" d="M783.18 517.21c-29.9,7.54 -8.13,-3 -38.72,54.34 -66.97,125.55 -237.8,240.65 -381.65,199.48 -178.09,-50.97 -208.82,-347.81 -177.65,-492.67 51.5,-239.35 248.72,-294.19 406.88,-200.1 101.94,60.64 118.38,120.5 157.31,188.11 15.61,27.11 34.97,27.91 39.43,-7.21 2.65,-20.88 4.37,-226.83 -5.6,-247.98 -37.31,3.6 -17.17,20.87 -44.95,39.32 -71.95,47.81 -208.99,-117.49 -479.41,-18.08 -350.62,128.89 -334.74,644.96 11.76,765.87 290.88,101.5 437.52,-135.02 473.57,-130.38 33.16,18.52 12.33,23.74 49.9,37.12 -0.55,-33.89 -1.96,-67.05 -1.87,-101.09 0.07,-25.53 5.15,-64.92 -9.01,-86.75z"/>
  <path class="fil2" d="M1184.24 705.45c-3.37,-54.36 -2.57,-118.95 -1.28,-173.72 1.31,-55.74 59.8,-79.23 102.69,-59.89 42.87,19.33 34.5,85.95 34.87,138.65 1.14,162.16 -23.89,76.92 -49.21,123.88l19.52 7.65c27.95,5.13 139.9,3.65 153.49,-7.65 -13.87,-35.04 -39.26,10.23 -43.3,-51.56 -1.8,-27.51 0.09,-63.38 -0.02,-91.88 -0.27,-65.35 -2.31,-119.09 65.67,-124.52 72.31,-5.78 65.92,61.91 65.98,124.52 0.02,24.94 2.52,75.97 -0.95,98.16 -7.53,48.2 -30.59,11.23 -46.49,45.28 1.37,1.15 3.45,2.22 4.63,2.72l40.97 6.8c38.4,-0.13 112.96,5.06 129.06,-9.52 -8.2,-19.59 -20.56,-12.15 -42.88,-26.47 -9.41,-72.74 17.5,-192.7 -23.38,-244.67 -63.61,-80.88 -174.3,-1.63 -192.54,6.03 -32.81,-21.91 -44.25,-51.39 -110.34,-48.04 -47.8,2.42 -75.6,29.76 -107.44,46.54l-3.51 -44.56 -120.87 43.86c15.03,40.52 44.93,-27.01 44.42,97.76 -0.19,47.49 3.42,96.08 -3.19,143.12 -7.51,3.94 -17.41,7.26 -25.43,11.46 -22.76,11.92 -6.87,-7.29 -19.29,14.97 1.47,1.04 3.58,1.99 4.8,2.45 1.23,0.47 3.39,1.73 4.97,2.23 23.35,7.55 51.13,3.81 75.71,3.68 25.48,-0.13 65.24,5.34 87.11,-8.37 -16.36,-27.88 -2.35,2.17 -43.78,-28.91z"/>
  <path class="fil3" d="M1807.25 483.49c109.28,-79.22 193.51,105.64 137.88,202.85 -31.76,55.51 -111.24,45.6 -131.79,-6.12 -12.45,-31.34 -6.3,-153.99 -6.09,-196.73zm-128.82 374.75c19.38,9.44 158.47,7.96 177.83,0 -6.15,-61.04 -57.16,49.29 -48.55,-134.82 22.63,3.84 84.77,47.94 160.95,0.08 41.73,-26.22 68.71,-80.17 69.5,-145.62 1.74,-144.57 -118.92,-218.51 -227.32,-127.19l-6.47 -21.22c-0.47,-1.25 -1.56,-3.66 -1.97,-4.69l-111.44 20.26c-13.88,6.59 -4.23,0.51 -12.54,8.97l15.43 12.63c5.86,3.49 10.25,3.11 17.78,8.4 15.48,10.89 14.07,18.56 15.23,37.07 2.39,38.15 2.89,300.37 -3.91,311.24 -28.34,22.19 -43.48,3.95 -44.52,34.89z"/>
  <path class="fil2" d="M2344.82 617c-31.03,-197.45 159.94,-251.04 188.46,-77.83 34.94,212.22 -161.61,248.68 -188.46,77.83zm-82.41 -19.56c9.56,91.16 96.01,155.84 198.63,148.04 90.82,-6.91 169.47,-80.38 160.13,-179.46 -21.26,-225.64 -382.17,-191.8 -358.77,31.42z"/>
  <path class="fil4" d="M2067.24 264.94c23.43,32.23 49.96,-6.1 51.19,77.95 0.6,40.93 -0.32,83.02 -0.21,124.16 0.18,66.72 6.04,178.03 -4.58,239.52 -55.02,32.07 -34.27,-3.59 -51.47,27.79l10.47 5.25c17.57,6.1 158.01,9.69 183.39,-5.25 -12.16,-20.24 -0.72,-6.84 -56.82,-26.53l-2.77 -477.71c-23.73,0.92 -111.34,18.01 -129.18,34.82z"/>
  <path class="fil5" d="M302.09 865.26c-148.9,-36.55 -280.72,-180.48 -301.97,-323.77 -4.62,143.55 123.52,343.88 300.73,382.86 253.23,55.7 437.52,-184.83 440.99,-227.01 -21.46,4.05 -28.89,20.94 -43.98,36.16 -106.4,107.4 -233.89,171.5 -395.77,131.77z"/>
  <path class="fil2" d="M855.64 460.53c11.89,14.84 -18.95,-1.11 30.37,20.85 18.23,8.11 16.11,0.34 21.42,24.89l-0.64 188.65c-12.15,44.63 -38.33,6.97 -49.12,39.44 15.94,14.13 143.43,10.09 158.98,6.59 14,-3.15 8.02,-1.32 15.98,-6.59 -9.22,-15.45 -7.55,-11.86 -42.92,-26.08l-1.59 -284.78c-17.42,0.07 -123.89,29.33 -132.48,37.03z"/>
  <path class="fil2" d="M924.43 255.83c-57.06,26.23 -21.55,113.17 44.37,84.51 48.58,-21.12 21.61,-114.84 -44.37,-84.51z"/>
 </g>
</svg>
